<?xml version="1.0" encoding="UTF-8" standalone="no"?><!-- Generator: Gravit.io --><svg xmlns="http://www.w3.org/2000/svg" xmlns:xlink="http://www.w3.org/1999/xlink" style="isolation:isolate" viewBox="0 0.36 963.51 683.419" width="963.51pt" height="683.419pt"><g><ellipse vector-effect="non-scaling-stroke" cx="731.49898" cy="159.62046" rx="47.16805999999997" ry="47.41861" fill="rgb(242,242,242)"/><ellipse vector-effect="non-scaling-stroke" cx="705.4989799999998" cy="325.62046" rx="67.26316999999995" ry="67.62045999999998" fill="rgb(242,242,242)"/><ellipse vector-effect="non-scaling-stroke" cx="740.49898" cy="525.62046" rx="75.16805999999997" ry="75.56733999999997" fill="rgb(242,242,242)"/><rect x="33.667" y="144" width="244" height="127" transform="matrix(1,0,0,1,0,0)" fill="rgb(66,165,245)"/><rect x="0" y="618.279" width="963.51" height="2.241" transform="matrix(1,0,0,1,0,0)" fill="rgb(47,46,65)"/><path d=" M 510.109 286.067 L 524.667 338 C 524.667 338 521.667 384 535.667 375 C 549.994 365.79 544.667 327 544.667 327 L 536.275 280.409 L 510.109 286.067 Z " fill="rgb(160,97,106)"/><path d=" M 517.888 140.381 L 529.91 152.404 L 529.91 209.688 C 529.91 209.688 536.983 220.296 535.568 223.125 C 535.568 223.125 532.739 225.954 534.154 228.075 C 534.154 228.075 536.983 231.611 535.568 233.026 C 535.568 233.026 534.154 237.976 535.568 239.391 C 535.568 239.391 539.811 242.927 537.69 245.048 C 537.69 245.048 532.739 245.756 535.568 253.535 C 535.568 253.535 543.347 263.436 541.933 266.265 C 541.933 266.265 540.519 276.166 540.519 276.166 L 510.109 280.409 L 503.744 200.494 L 517.888 140.381 Z " fill="rgb(208,205,225)"/><path d=" M 541.933 275.459 L 506.572 276.873 L 507.987 291.724 L 539.104 286.067 L 541.933 275.459 L 541.933 275.459 Z " fill="rgb(63,61,86)"/><path d=" M 444.692 66.478 L 440.448 108.91 L 483.588 115.275 L 486.771 90.877 L 489.953 66.478 L 444.692 66.478 L 444.692 66.478 Z " fill="rgb(151,98,106)"/><g opacity="0.1"><path d=" M 444.906 81.314 L 440.662 123.746 L 483.802 130.111 L 486.985 105.713 L 490.167 81.314 L 444.906 81.314 L 444.906 81.314 Z " fill="rgb(0,0,0)"/></g><path d=" M 350.986 268.386 L 375.031 320.013 C 375.031 320.013 379.275 344.058 385.639 344.765 C 385.639 344.765 398.369 320.013 398.369 320.013 L 389.883 306.576 L 379.982 268.386 L 350.986 268.386 Z " fill="rgb(144,87,95)"/><path d=" M 401.198 315.062 L 381.396 346.18 C 381.396 346.18 362.302 642.501 365.13 640.379 C 367.959 638.258 377.153 637.55 380.689 631.893 C 384.225 626.235 406.149 631.893 406.149 631.893 L 418.878 618.456 L 418.878 607.848 C 418.878 605.726 444.338 443.775 444.338 443.775 L 444.338 484.793 C 444.338 484.793 436.559 635.429 449.288 634.014 C 449.288 634.014 488.185 624.113 488.185 624.113 C 488.185 624.113 525.667 342.644 514.352 332.035 C 514.352 332.035 498.086 297.382 498.086 297.382 L 401.198 315.062 Z " fill="rgb(47,46,65)"/><circle vector-effect="non-scaling-stroke" cx="468.38311" cy="46.32229999999999" r="33.946109999999976" fill="rgb(185,123,134)"/><path d=" M 392.712 115.629 L 387.761 112.8 C 387.761 112.8 365.838 127.652 358.765 160.89 C 351.693 194.129 346.743 202.616 346.743 202.616 C 346.743 202.616 339.671 204.03 344.621 208.981 C 349.572 213.931 349.572 213.224 345.328 216.053 C 341.085 218.882 338.256 213.224 341.085 218.882 C 343.914 224.539 347.45 223.125 344.621 226.661 C 341.792 230.197 336.842 230.197 339.671 233.026 C 342.5 235.855 336.842 242.22 340.378 245.048 C 343.914 247.877 345.328 248.584 345.328 253.535 C 345.307 256.424 345.785 259.295 346.743 262.022 L 383.518 262.022 C 383.518 262.022 376.446 248.585 378.567 245.756 C 378.567 245.756 381.396 240.098 379.982 238.684 C 379.982 238.684 374.324 240.098 378.567 236.562 C 378.567 236.562 384.225 235.148 382.811 230.904 C 382.811 230.904 378.567 228.783 381.396 226.661 C 381.396 226.661 386.347 225.247 384.932 223.125 C 384.932 223.125 380.689 221.003 383.518 219.589 C 383.518 219.589 388.468 219.589 387.761 216.053 C 387.761 216.053 386.347 213.931 387.761 212.517 C 387.761 212.517 404.027 163.012 404.027 161.598 C 404.027 160.183 392.712 115.629 392.712 115.629 Z " fill="rgb(208,205,225)"/><path d=" M 385.639 259.193 L 341.085 262.022 L 352.401 272.63 L 383.518 273.337 L 385.639 259.193 L 385.639 259.193 Z " fill="rgb(63,61,86)"/><path d=" M 398.369 312.233 L 389.176 329.207 C 389.176 329.207 416.757 332.743 426.658 336.279 C 426.658 336.279 462.018 344.765 462.018 344.765 L 468.383 320.013 L 398.369 312.233 Z " fill="rgb(63,61,86)"/><path d=" M 478.991 320.013 L 486.771 343.351 L 517.888 336.986 L 514.352 315.062 L 478.991 320.013 L 478.991 320.013 Z " fill="rgb(63,61,86)"/><path d=" M 491.721 91.584 C 491.721 91.584 489.599 90.169 484.649 92.998 C 484.649 92.998 463.433 97.241 455.653 88.755 C 455.653 88.755 442.216 73.196 440.095 74.611 C 440.095 74.611 436.559 92.291 436.559 92.291 L 429.487 97.949 L 387.761 112.8 L 391.297 208.274 L 397.662 230.197 C 397.662 230.197 392.712 247.17 399.076 257.071 C 399.076 257.071 395.54 270.508 395.54 270.508 C 395.54 270.508 393.419 273.337 394.833 280.409 C 394.833 280.409 393.419 313.648 393.419 313.648 C 393.419 313.648 453.532 340.522 516.473 317.184 L 509.401 290.31 L 505.865 230.197 C 505.865 230.197 509.401 220.296 508.694 216.053 C 508.694 216.053 529.91 152.404 529.91 152.404 C 529.91 152.404 526.374 122.701 507.987 116.336 C 507.987 116.336 486.771 103.606 486.771 103.606 C 486.771 103.606 495.257 94.413 491.721 91.584 Z " fill="rgb(208,205,225)"/><path d=" M 434.202 50.671 C 434.202 50.671 430.676 45.383 432.032 39.689 C 432.842 36.456 433.162 33.119 432.981 29.791 C 432.981 29.791 435.829 20.572 438.676 15.42 C 438.676 15.42 440.167 8.098 449.116 6.471 C 449.116 6.471 454.403 -6.816 477.995 5.793 C 479.622 8.066 482.457 9.136 485.18 8.505 C 490.061 7.556 491.824 14.335 491.824 14.335 C 491.824 14.335 495.078 12.437 496.298 15.148 C 497.518 17.86 506.219 13.521 506.219 31.824 C 506.219 50.128 496.318 66.478 496.318 66.478 C 496.318 66.478 497.044 35.689 480.909 32.571 C 464.775 29.452 447.421 20.368 443.218 32.028 C 440.949 38.573 437.923 44.829 434.202 50.671 L 434.202 50.671 Z " fill="rgb(47,46,65)"/><ellipse vector-effect="non-scaling-stroke" cx="496.67154" cy="53.74801" rx="3.182450000000017" ry="4.243259999999999" fill="rgb(151,98,106)"/><path d=" M 478.638 621.608 L 483.612 636.529 C 483.612 636.529 483.612 651.45 488.585 658.91 C 488.585 658.91 498.533 682.535 478.638 683.779 C 478.638 683.779 450.039 677.562 450.039 677.562 C 450.039 677.562 453.769 667.614 450.039 663.884 C 450.039 663.884 450.039 652.693 450.039 652.693 L 453.769 622.851 L 478.638 621.608 Z " fill="rgb(47,46,65)"/><path d=" M 381.751 621.608 L 376.777 636.529 C 376.777 636.529 376.777 651.45 371.803 658.91 C 371.803 658.91 361.856 682.535 381.751 683.779 C 381.751 683.779 410.349 677.562 410.349 677.562 C 410.349 677.562 406.619 667.614 410.349 663.884 C 410.349 663.884 410.349 652.693 410.349 652.693 L 406.619 622.851 L 381.751 621.608 Z " fill="rgb(47,46,65)"/><rect x="721.667" y="153" width="2" height="464" transform="matrix(1,0,0,1,0,0)" fill="rgb(63,61,86)"/><path d=" M 722.667 578 C 681.246 578 647.667 544.421 647.667 503 C 647.667 461.579 681.246 428 722.667 428 C 764.088 428 797.667 461.579 797.667 503 C 797.62 544.402 764.069 577.953 722.667 578 L 722.667 578 Z  M 722.667 430 C 682.35 430 649.667 462.683 649.667 503 C 649.667 543.317 682.35 576 722.667 576 C 762.984 576 795.667 543.317 795.667 503 C 795.621 462.702 762.965 430.046 722.667 430 L 722.667 430 Z " fill="rgb(63,61,86)"/><path d=" M 722.667 375 C 686.216 375 656.667 345.451 656.667 309 C 656.667 272.549 686.216 243 722.667 243 C 759.118 243 788.667 272.549 788.667 309 C 788.626 345.434 759.101 374.959 722.667 375 L 722.667 375 Z  M 722.667 245 C 687.321 245 658.667 273.654 658.667 309 C 658.667 344.346 687.321 373 722.667 373 C 758.013 373 786.667 344.346 786.667 309 C 786.627 273.67 757.997 245.04 722.667 245 L 722.667 245 Z " fill="rgb(63,61,86)"/><path d=" M 722.667 194 C 694.501 194 671.667 171.167 671.667 143 C 671.667 114.833 694.501 92 722.667 92 C 750.834 92 773.667 114.833 773.667 143 C 773.635 171.153 750.82 193.968 722.667 194 L 722.667 194 Z  M 722.667 94 C 695.605 94 673.667 115.938 673.667 143 C 673.667 170.062 695.605 192 722.667 192 C 749.729 192 771.667 170.062 771.667 143 C 771.636 115.951 749.716 94.031 722.667 94 L 722.667 94 Z " fill="rgb(63,61,86)"/><rect x="592.667" y="142" width="131" height="2" transform="matrix(1,0,0,1,0,0)" fill="rgb(63,61,86)"/><rect x="618.667" y="266" width="131" height="2" transform="matrix(1,0,0,1,0,0)" fill="rgb(63,61,86)"/><rect x="694.667" y="293" width="131" height="2" transform="matrix(1,0,0,1,0,0)" fill="rgb(63,61,86)"/><path d=" M 291.667 259 L 45.667 259 L 45.667 130 L 291.667 130 L 291.667 259 Z  M 47.667 257 L 289.667 257 L 289.667 132 L 47.667 132 L 47.667 257 Z " fill="rgb(63,61,86)"/><path d=" M 168.667 195.125 L 46.208 131.889 L 47.126 130.111 L 168.667 192.875 L 290.208 130.111 L 291.126 131.889 L 168.667 195.125 L 168.667 195.125 Z " fill="rgb(63,61,86)"/><path d=" M 127.186 620.458 L 126.113 620.056 C 125.877 619.967 102.404 610.974 91.409 590.582 C 80.412 570.189 85.797 545.637 85.852 545.392 L 86.106 544.273 L 87.179 544.676 C 87.414 544.765 110.887 553.758 121.883 574.149 C 132.879 594.542 127.494 619.095 127.439 619.34 L 127.186 620.458 Z  M 93.169 589.633 C 102.466 606.874 121.014 615.712 125.714 617.729 C 126.608 612.692 129.41 592.323 120.122 575.099 C 110.835 557.876 92.279 549.024 87.577 547.002 C 86.683 552.042 83.882 572.409 93.169 589.633 L 93.169 589.633 Z " fill="rgb(63,61,86)"/><path d=" M 99.812 583.429 C 119.572 595.318 127.183 618.932 127.183 618.932 C 127.183 618.932 102.755 623.27 82.994 611.382 C 63.234 599.493 55.623 575.879 55.623 575.879 C 55.623 575.879 80.051 571.54 99.812 583.429 Z " fill="rgb(66,165,245)"/></g></svg>