<?xml version="1.0"?>
<svg xmlns="http://www.w3.org/2000/svg" xmlns:xlink="http://www.w3.org/1999/xlink" version="1.1" id="Layer_1" x="0px" y="0px" viewBox="0 0 505 505" style="enable-background:new 0 0 505 505;" xml:space="preserve" width="512px" height="512px" class=""><g><g><circle style="fill:#42A5F5" cx="252.5" cy="252.5" r="252.5" data-original="#54C0EB" class="active-path" data-old_color="#54C0EB"/><polygon style="fill:#FFFFFF" points="179.4,418.9 179.4,365.3 125.9,365.3 125.9,86.1 379.1,86.1 379.1,418.9 " data-original="#FFFFFF" class=""/><g>
	<polygon style="fill:#E6E9EE;" points="179.4,418.9 125.9,365.3 179.4,365.3  " data-original="#E6E9EE" class=""/>
	<rect x="150" y="217.4" style="fill:#E6E9EE;" width="204.9" height="12.5" data-original="#E6E9EE" class=""/>
	<rect x="232.4" y="185" style="fill:#E6E9EE;" width="122.5" height="12.5" data-original="#E6E9EE" class=""/>
	<rect x="232.4" y="152.6" style="fill:#E6E9EE;" width="122.5" height="12.5" data-original="#E6E9EE" class=""/>
	<rect x="232.4" y="120.3" style="fill:#E6E9EE;" width="122.5" height="12.5" data-original="#E6E9EE" class=""/>
	<rect x="150" y="249.7" style="fill:#E6E9EE;" width="204.9" height="12.5" data-original="#E6E9EE" class=""/>
	<rect x="150" y="282.1" style="fill:#E6E9EE;" width="204.9" height="12.5" data-original="#E6E9EE" class=""/>
	<rect x="150" y="314.4" style="fill:#E6E9EE;" width="96.6" height="12.5" data-original="#E6E9EE" class=""/>
</g><path style="fill:#42A5F5" d="M186.7,159c4.7-2.3,8.5-8.1,10.1-14.7c1.3-0.3,2.3-1.7,2.3-3.4c0-1.3-0.6-2.5-1.5-3.1  c0-0.1,0-0.2,0-0.2c0-11-6.9-17.3-15.3-17.3c-8.5,0-15.3,6.3-15.3,17.3c0,0.1,0,0.2,0,0.2c-0.9,0.6-1.5,1.7-1.5,3.1  c0,1.7,1,3.2,2.3,3.4c1.5,6.4,5.1,12,9.6,14.5c-15.4,2-27.3,15.1-27.3,31c0,0.1,0,0.3,0,0.4c8.5,4.6,19.4,7.3,31.3,7.3  c11.9,0,22.8-2.7,31.3-7.3c0-0.1,0-0.3,0-0.4C212.6,174.3,201.4,161.5,186.7,159z" data-original="#000000" class="" data-old_color="#000000"/></g></g> </svg>
