<?xml version="1.0" encoding="UTF-8" standalone="no"?><!-- Generator: Gravit.io --><svg xmlns="http://www.w3.org/2000/svg" xmlns:xlink="http://www.w3.org/1999/xlink" style="isolation:isolate" viewBox="30.296 24.796 389.409 250.408" width="389.409pt" height="250.408pt"><g><path d=" M 408.584 200.667 L 379.936 216.745 L 351.288 232.824 C 345.139 236.274 335.146 236.29 328.986 232.859 L 300.284 216.869 L 271.582 200.879 C 265.422 197.447 260.412 188.937 260.4 181.886 L 260.348 150.123 L 260.296 118.361 C 260.284 111.31 265.267 102.784 271.416 99.333 L 300.064 83.255 L 328.712 67.176 C 334.861 63.726 344.854 63.71 351.014 67.141 L 379.716 83.131 L 408.418 99.121 C 414.578 102.553 419.588 111.063 419.6 118.114 L 419.652 149.877 L 419.704 181.639 C 419.716 188.69 414.733 197.216 408.584 200.667 Z " fill="rgb(44,105,204)"/><path d=" M 178.584 200.667 L 149.936 216.745 L 121.288 232.824 C 115.139 236.274 105.146 236.29 98.986 232.859 L 70.284 216.869 L 41.582 200.879 C 35.422 197.447 30.412 188.937 30.4 181.886 L 30.348 150.123 L 30.296 118.361 C 30.284 111.31 35.267 102.784 41.416 99.333 L 70.064 83.255 L 98.712 67.176 C 104.861 63.726 114.854 63.71 121.014 67.141 L 149.716 83.131 L 178.418 99.121 C 184.578 102.553 189.588 111.063 189.6 118.114 L 189.652 149.877 L 189.704 181.639 C 189.716 188.69 184.733 197.216 178.584 200.667 Z " fill="rgb(28,82,168)"/><path d=" M 323.588 223.824 L 282.42 247.68 L 241.251 271.537 C 232.847 276.407 219.188 276.429 210.769 271.586 L 169.524 247.861 L 128.279 224.136 C 119.859 219.293 113.011 207.475 112.996 197.762 L 112.92 150.18 L 112.843 102.599 C 112.828 92.886 119.638 81.046 128.042 76.176 L 169.211 52.32 L 210.38 28.463 C 218.784 23.593 232.443 23.571 240.862 28.414 L 282.107 52.139 L 323.352 75.864 C 331.771 80.707 338.62 92.525 338.635 102.238 L 338.711 149.82 L 338.787 197.401 C 338.803 207.114 331.992 218.954 323.588 223.824 Z " fill="rgb(41,48,78)"/><path d=" M 191.665 114.3 L 208.765 114.3 L 208.765 162.6 L 208.765 162.6 Q 208.765 173.7 202.715 179.7 L 202.715 179.7 L 202.715 179.7 Q 196.665 185.7 185.965 185.7 L 185.965 185.7 L 185.965 185.7 Q 174.365 185.7 167.565 179.15 L 167.565 179.15 L 167.565 179.15 Q 160.765 172.6 160.765 160.3 L 160.765 160.3 L 177.665 160.3 L 177.665 160.3 Q 177.665 170.2 185.165 170.2 L 185.165 170.2 L 185.165 170.2 Q 191.665 170.2 191.665 162.6 L 191.665 162.6 L 191.665 114.3 L 191.665 114.3 Z  M 253.165 113.6 L 253.165 113.6 Q 266.465 113.6 275.065 120.1 L 275.065 120.1 L 275.065 120.1 Q 283.665 126.6 285.765 137.7 L 285.765 137.7 L 267.665 137.7 L 267.665 137.7 Q 265.865 133.9 262.165 131.65 L 262.165 131.65 L 262.165 131.65 Q 258.465 129.4 253.265 129.4 L 253.265 129.4 L 253.265 129.4 Q 245.165 129.4 240.265 134.85 L 240.265 134.85 L 240.265 134.85 Q 235.365 140.3 235.365 149.6 L 235.365 149.6 L 235.365 149.6 Q 235.365 159.7 240.515 165.1 L 240.515 165.1 L 240.515 165.1 Q 245.665 170.5 255.165 170.5 L 255.165 170.5 L 255.165 170.5 Q 261.265 170.5 265.865 167.15 L 265.865 167.15 L 265.865 167.15 Q 270.465 163.8 272.365 157.6 L 272.365 157.6 L 250.765 157.6 L 250.765 145.3 L 286.665 145.3 L 286.665 162.2 L 286.665 162.2 Q 284.665 168.4 280.265 173.7 L 280.265 173.7 L 280.265 173.7 Q 275.865 179 269.015 182.3 L 269.015 182.3 L 269.015 182.3 Q 262.165 185.6 253.365 185.6 L 253.365 185.6 L 253.365 185.6 Q 242.665 185.6 234.665 181.05 L 234.665 181.05 L 234.665 181.05 Q 226.665 176.5 222.315 168.3 L 222.315 168.3 L 222.315 168.3 Q 217.965 160.1 217.965 149.6 L 217.965 149.6 L 217.965 149.6 Q 217.965 139.1 222.315 130.9 L 222.315 130.9 L 222.315 130.9 Q 226.665 122.7 234.615 118.15 L 234.615 118.15 L 234.615 118.15 Q 242.565 113.6 253.165 113.6 L 253.165 113.6 L 253.165 113.6 Z " fill="rgb(255,255,255)"/><path d=" M 102.613 142.793 L 69.215 154.805 L 102.613 166.582 L 102.613 182.988 L 52.164 161.602 L 52.164 147.773 L 102.613 126.387 L 102.613 142.793 L 102.613 142.793 Z " fill="rgb(255,255,255)"/><path d=" M 350.387 142.793 L 383.785 154.805 L 350.387 166.582 L 350.387 182.988 L 400.836 161.602 L 400.836 147.773 L 350.387 126.387 L 350.387 142.793 L 350.387 142.793 Z " fill="rgb(255,255,255)"/></g></svg>